<svg width="134" height="26" viewBox="0 0 134 26" fill="none" xmlns="http://www.w3.org/2000/svg">
<path d="M17.0387 24.9101C15.4613 22.1085 13.7544 19.3421 11.918 16.6111C10.0816 13.88 8.12753 11.302 6.05571 8.87708V24.9101H0.617188V0.436768H5.10221C5.87914 1.2137 6.73847 2.1672 7.68021 3.29729C8.62195 4.42737 9.57545 5.63986 10.5407 6.93475C11.5296 8.20609 12.5066 9.53629 13.4719 10.9254C14.4372 12.2909 15.3436 13.6093 16.1911 14.8806V0.436768H21.665V24.9101H17.0387Z" fill="white"/>
<path d="M25.3681 15.7635C25.3681 14.1155 25.6153 12.6793 26.1097 11.4551C26.6277 10.2073 27.2987 9.17136 28.1227 8.34735C28.9467 7.52333 29.8884 6.89943 30.9479 6.47565C32.0309 6.05187 33.1374 5.83997 34.2675 5.83997C36.9044 5.83997 38.988 6.65222 40.5183 8.27672C42.0486 9.87767 42.8138 12.2438 42.8138 15.3751C42.8138 15.6811 42.802 16.0225 42.7785 16.3992C42.7549 16.7523 42.7314 17.0702 42.7078 17.3527H30.7713C30.889 18.4357 31.3952 19.295 32.2899 19.9307C33.1845 20.5664 34.3852 20.8842 35.892 20.8842C36.8573 20.8842 37.799 20.8018 38.7172 20.637C39.659 20.4487 40.4241 20.225 41.0127 19.966L41.719 24.2391C41.4365 24.3804 41.0598 24.5217 40.5889 24.6629C40.1181 24.8042 39.5883 24.9219 38.9997 25.0161C38.4347 25.1338 37.8226 25.228 37.1634 25.2986C36.5041 25.3692 35.8449 25.4045 35.1857 25.4045C33.5141 25.4045 32.0544 25.1573 30.8066 24.6629C29.5824 24.1685 28.5582 23.4975 27.7342 22.65C26.9337 21.7789 26.3334 20.7547 25.9332 19.5775C25.5565 18.4004 25.3681 17.129 25.3681 15.7635ZM37.7284 13.7506C37.7049 13.3032 37.6225 12.8677 37.4812 12.4439C37.3635 12.0201 37.1634 11.6434 36.8808 11.3138C36.6219 10.9842 36.2805 10.7135 35.8567 10.5016C35.4565 10.2897 34.9503 10.1837 34.3381 10.1837C33.7496 10.1837 33.2434 10.2897 32.8196 10.5016C32.3958 10.6899 32.0427 10.9489 31.7601 11.2785C31.4776 11.6081 31.254 11.9966 31.0892 12.4439C30.9479 12.8677 30.8419 13.3032 30.7713 13.7506H37.7284Z" fill="white"/>
<path d="M57.363 10.996C56.8922 10.8783 56.3389 10.7606 55.7032 10.6428C55.0676 10.5016 54.3848 10.4309 53.655 10.4309C53.3253 10.4309 52.9251 10.4663 52.4542 10.5369C52.0069 10.584 51.6655 10.6428 51.4301 10.7135V24.9101H46.1682V7.32321C47.1099 6.9936 48.2164 6.68753 49.4878 6.40501C50.7827 6.09895 52.2188 5.94592 53.7962 5.94592C54.0787 5.94592 54.4201 5.96946 54.8204 6.01655C55.2206 6.04009 55.6208 6.08719 56.0211 6.15782C56.4213 6.2049 56.8215 6.27553 57.2218 6.3697C57.622 6.44033 57.9634 6.5345 58.2459 6.65222L57.363 10.996Z" fill="white"/>
<path d="M77.3906 15.5869C77.3906 17.0466 77.1787 18.3886 76.7549 19.6129C76.3311 20.8136 75.719 21.8495 74.9185 22.7206C74.118 23.5682 73.1528 24.2274 72.0227 24.6982C70.9161 25.1691 69.6683 25.4045 68.2793 25.4045C66.9138 25.4045 65.666 25.1691 64.5359 24.6982C63.4293 24.2274 62.4758 23.5682 61.6753 22.7206C60.8749 21.8495 60.251 20.8136 59.8036 19.6129C59.3563 18.3886 59.1327 17.0466 59.1327 15.5869C59.1327 14.1273 59.3563 12.7971 59.8036 11.5963C60.2745 10.3956 60.9102 9.37149 61.7107 8.52392C62.5347 7.67636 63.5 7.01715 64.6065 6.54628C65.7366 6.07541 66.9608 5.83997 68.2793 5.83997C69.6212 5.83997 70.8455 6.07541 71.952 6.54628C73.0821 7.01715 74.0474 7.67636 74.8479 8.52392C75.6484 9.37149 76.2723 10.3956 76.7196 11.5963C77.1669 12.7971 77.3906 14.1273 77.3906 15.5869ZM72.0227 15.5869C72.0227 13.9624 71.6931 12.6911 71.0339 11.7729C70.3982 10.8312 69.48 10.3603 68.2793 10.3603C67.0786 10.3603 66.1486 10.8312 65.4894 11.7729C64.8302 12.6911 64.5006 13.9624 64.5006 15.5869C64.5006 17.2114 64.8302 18.5063 65.4894 19.4716C66.1486 20.4133 67.0786 20.8842 68.2793 20.8842C69.48 20.8842 70.3982 20.4133 71.0339 19.4716C71.6931 18.5063 72.0227 17.2114 72.0227 15.5869Z" fill="white"/>
<path d="M94.365 9.86589C93.9412 10.3368 93.3644 10.9724 92.6346 11.7729C91.9283 12.5734 91.1631 13.4563 90.3391 14.4216C89.5151 15.3868 88.6793 16.3992 87.8317 17.4586C87.0077 18.5181 86.2543 19.5422 85.5715 20.5311H94.5416V24.9101H79.1795V21.8024C79.6739 20.9548 80.2625 20.0484 80.9453 19.0831C81.6516 18.0943 82.3814 17.1055 83.1348 16.1167C83.9117 15.1278 84.6769 14.1743 85.4303 13.2561C86.1837 12.3144 86.8782 11.4669 87.5139 10.7135H79.6033V6.33438H94.365V9.86589Z" fill="white"/>
<path d="M114.225 15.5869C114.225 17.0466 114.013 18.3886 113.589 19.6129C113.165 20.8136 112.553 21.8495 111.752 22.7206C110.952 23.5682 109.987 24.2274 108.857 24.6982C107.75 25.1691 106.502 25.4045 105.113 25.4045C103.748 25.4045 102.5 25.1691 101.37 24.6982C100.263 24.2274 99.3098 23.5682 98.5093 22.7206C97.7088 21.8495 97.0849 20.8136 96.6376 19.6129C96.1903 18.3886 95.9666 17.0466 95.9666 15.5869C95.9666 14.1273 96.1903 12.7971 96.6376 11.5963C97.1084 10.3956 97.7441 9.37149 98.5446 8.52392C99.3686 7.67636 100.334 7.01715 101.44 6.54628C102.571 6.07541 103.795 5.83997 105.113 5.83997C106.455 5.83997 107.679 6.07541 108.786 6.54628C109.916 7.01715 110.881 7.67636 111.682 8.52392C112.482 9.37149 113.106 10.3956 113.554 11.5963C114.001 12.7971 114.225 14.1273 114.225 15.5869ZM108.857 15.5869C108.857 13.9624 108.527 12.6911 107.868 11.7729C107.232 10.8312 106.314 10.3603 105.113 10.3603C103.912 10.3603 102.983 10.8312 102.323 11.7729C101.664 12.6911 101.334 13.9624 101.334 15.5869C101.334 17.2114 101.664 18.5063 102.323 19.4716C102.983 20.4133 103.912 20.8842 105.113 20.8842C106.314 20.8842 107.232 20.4133 107.868 19.4716C108.527 18.5063 108.857 17.2114 108.857 15.5869Z" fill="white"/>
<path d="M117.594 6.97006C118.489 6.71108 119.643 6.47564 121.055 6.26376C122.468 6.02832 123.951 5.9106 125.505 5.9106C127.082 5.9106 128.389 6.1225 129.425 6.54628C130.484 6.94652 131.32 7.52333 131.932 8.27672C132.544 9.03011 132.98 9.92476 133.239 10.9607C133.498 11.9966 133.627 13.1502 133.627 14.4216V24.9101H128.365V15.0572C128.365 13.3621 128.142 12.1614 127.694 11.4551C127.247 10.7488 126.411 10.3956 125.187 10.3956C124.81 10.3956 124.41 10.4192 123.986 10.4663C123.563 10.4898 123.186 10.5251 122.856 10.5722V24.9101H117.594V6.97006Z" fill="white"/>
</svg>
