<svg width="49" height="46" viewBox="0 0 49 46" fill="none" xmlns="http://www.w3.org/2000/svg">
<path d="M39.8086 41.9646C39.8086 40.8944 39.3835 39.868 38.6267 39.1112C37.8699 38.3545 36.8435 37.9296 35.7734 37.9296C34.7032 37.9296 33.6768 38.3545 32.92 39.1112C32.1633 39.868 31.7381 40.8944 31.7381 41.9646C31.7381 43.035 32.1633 44.0611 32.92 44.8179C33.6768 45.5746 34.7032 45.9998 35.7734 45.9998C36.8467 46.0103 37.8791 45.5883 38.6382 44.8294C39.3971 44.0705 39.819 43.0379 39.8086 41.9646Z" fill="white" fill-opacity="0.8"/>
<path fill-rule="evenodd" clip-rule="evenodd" d="M4.84852 6.86154C6.11847 6.86847 7.3498 7.3017 8.34439 8.09194C9.34584 8.88729 10.0489 9.99779 10.3395 11.243L10.3433 11.2594L10.6338 12.2282H48.1605L44.4029 29.8721L44.4027 29.8732C44.0702 31.392 43.2314 32.7528 42.0238 33.7322C40.8166 34.7113 39.312 35.2513 37.7577 35.2635H13.7273L8.12123 11.7843L8.12079 11.7825C7.94148 11.0427 7.52103 10.3832 6.92469 9.90905C6.32869 9.43443 5.59187 9.17267 4.83054 9.16378L4.82736 9.16374H1.14228L1.13262 9.16408C0.829447 9.17487 0.535242 9.05906 0.320846 8.8444L0.320387 8.84394C0.105707 8.62951 -0.010097 8.3353 0.000691759 8.03217L0.00103572 8.0225V8.01283C0.00103572 7.70725 0.12237 7.41443 0.337951 7.19885C0.554047 6.98276 0.846905 6.86154 1.15193 6.86154H4.84852ZM45.3247 14.5309L11.1414 14.5308L15.5238 32.9613H37.7618L37.7641 32.9613C38.7942 32.9528 39.7906 32.5906 40.5858 31.9357C41.3805 31.2811 41.9267 30.3741 42.1329 29.3656L42.1335 29.3628L45.3247 14.5309Z" fill="#EC7C03"/>
<path d="M21.0449 41.9646C21.0449 40.8944 20.6197 39.868 19.8629 39.1112C19.1062 38.3545 18.0798 37.9296 17.0096 37.9296C15.9395 37.9296 14.913 38.3545 14.1563 39.1112C13.3996 39.868 12.9744 40.8944 12.9744 41.9646C12.9744 43.035 13.3995 44.0611 14.1563 44.8179C14.913 45.5746 15.9395 45.9998 17.0096 45.9998C18.083 46.0103 19.1153 45.5883 19.8745 44.8294C20.6334 44.0705 21.055 43.0379 21.0449 41.9646Z" fill="white" fill-opacity="0.8"/>
<path d="M12.8662 8.1031C12.5861 7.19493 13.0552 6.22464 13.941 5.88021L28.7452 0.123772C29.712 -0.252136 30.7964 0.258689 31.1222 1.24346L34.361 11.0337H13.7702L12.8662 8.1031Z" fill="#EC7C03"/>
<path d="M33.1504 3.26594L43.9817 5.16987C45.0759 5.36221 45.7409 6.4849 45.3838 7.5369L44.1968 11.0337H35.7229L33.1504 3.26594Z" fill="#EC7C03"/>
</svg>
